<svg width="337" height="337" viewBox="0 0 337 337" fill="none" xmlns="http://www.w3.org/2000/svg">
<circle cx="168.5" cy="168.5" r="168.5" fill="white"/>
<mask id="mask0_2_3" style="mask-type:alpha" maskUnits="userSpaceOnUse" x="0" y="0" width="337" height="337">
<circle cx="168.5" cy="168.5" r="168.5" fill="#C4C4C4"/>
</mask>
<g mask="url(#mask0_2_3)">
<path d="M57.6531 191.409C57.6531 191.409 143.706 39.6494 278.659 79.745C290.497 88.0667 289.067 105.758 273.268 109.204C255.056 105.74 218.349 87.6748 166.153 130.286C210.773 156.792 196.412 198.391 241.114 195.584C274.224 187.116 301.105 162.643 344.35 162.224C344.35 162.224 409.696 166.563 415.46 222.718C427.298 338.047 240.868 316.107 213.013 310.921C148.286 298.853 142.04 230.01 137.095 221.779C131.267 208.426 116.06 186.232 87.3664 210.969C78.4697 228.196 39.796 217.532 57.6531 191.409Z" fill="#231815" stroke="#231815" stroke-miterlimit="10"/>
<path d="M296.771 187.581C296.771 187.581 318.908 176.16 332.075 180.289C337.42 183.179 341.628 210.249 341.628 210.249L327.631 219.72C327.631 219.72 294.103 214.77 292.327 212.373C290.551 209.976 294.776 187.937 296.771 187.581Z" fill="white" stroke="#231815" stroke-miterlimit="10"/>
<path d="M245.239 206.804C245.239 206.804 274.789 197.689 284.587 192.312C289.14 191.774 273.086 228.916 273.086 228.916C273.086 228.916 258.388 244.129 250.375 241.968C242.362 239.808 245.239 206.804 245.239 206.804Z" fill="white" stroke="#231815" stroke-miterlimit="10"/>
<path d="M207.276 195.429C209.325 194.681 228.757 205.373 234.084 206.813C236.024 212.218 235.623 224.386 236.552 230.557C237.162 234.649 205.218 196.176 207.276 195.429Z" fill="white" stroke="#231815" stroke-miterlimit="10"/>
<path d="M289.24 220.075C291.298 219.318 318.006 227.713 326.01 230.867C324.371 238.067 307.234 263.889 298.173 258.32C298.41 255.458 287.054 223.247 289.24 220.075Z" fill="white" stroke="#231815" stroke-miterlimit="10"/>
<path d="M152.357 145.9C152.359 148.493 151.592 151.028 150.154 153.185C148.716 155.342 146.671 157.023 144.277 158.016C141.884 159.009 139.251 159.27 136.71 158.764C134.169 158.259 131.835 157.01 130.003 155.177C128.171 153.343 126.924 151.007 126.419 148.463C125.914 145.92 126.174 143.284 127.166 140.889C128.158 138.493 129.838 136.446 131.993 135.007C134.148 133.567 136.681 132.8 139.271 132.802C142.741 132.804 146.068 134.185 148.521 136.641C150.975 139.096 152.354 142.427 152.357 145.9V145.9Z" fill="white" stroke="#231815" stroke-miterlimit="10"/>
<path d="M262.331 246.717C262.331 246.717 275.89 234.385 281.636 234.795C285.343 237.265 288.621 256.178 288.621 256.178C287.391 260.289 278.021 257.527 262.331 246.717Z" fill="white" stroke="#231815" stroke-miterlimit="10"/>
<circle cx="168.5" cy="168.5" r="162" stroke="black" stroke-width="13"/>
</g>
</svg>
